<?xml version="1.0" encoding="UTF-8" ?>
<!DOCTYPE svg PUBLIC "-//W3C//DTD SVG 1.1//EN" "http://www.w3.org/Graphics/SVG/1.1/DTD/svg11.dtd">
<svg width="200pt" height="200pt" viewBox="0 0 200 200" version="1.1" xmlns="http://www.w3.org/2000/svg">
<path fill="#ff0000" d=" M 0.00 0.00 L 200.00 0.00 L 200.00 93.52 C 196.75 94.70 193.43 95.68 190.16 96.78 C 188.76 102.02 187.43 107.28 186.01 112.52 C 180.10 114.15 174.22 115.85 168.32 117.50 C 166.96 123.75 165.64 130.00 164.27 136.25 C 158.39 137.96 152.47 139.55 146.59 141.27 C 144.89 147.63 143.20 153.99 141.49 160.34 C 135.23 161.70 128.97 163.01 122.71 164.39 C 122.04 170.42 121.40 176.45 120.70 182.48 C 115.14 184.46 109.59 186.48 104.02 188.45 C 104.18 192.30 104.38 196.15 104.58 200.00 L 0.00 200.00 L 0.00 0.00 Z" />
<path fill="#ffffff" d=" M 55.40 42.35 C 63.27 35.02 74.42 32.39 84.93 32.58 C 97.53 32.55 110.78 36.06 120.03 45.01 C 129.12 54.50 130.78 69.45 126.41 81.49 C 122.00 92.45 110.93 98.13 102.58 105.66 C 98.10 109.99 97.30 116.48 97.62 122.40 C 89.84 122.43 82.07 122.36 74.30 122.44 C 74.50 115.60 74.76 108.57 77.03 102.06 C 81.42 93.07 90.99 88.64 97.82 81.86 C 104.45 74.91 103.87 62.59 96.54 56.38 C 91.76 53.03 85.39 52.97 79.87 54.10 C 71.57 56.12 67.80 65.62 67.79 73.39 C 59.58 73.41 51.36 73.41 43.15 73.40 C 43.15 62.09 46.67 50.03 55.40 42.35 Z" />
<path fill="#ffffff" d=" M 190.16 96.78 C 193.43 95.68 196.75 94.70 200.00 93.52 L 200.00 137.25 C 196.23 139.00 192.35 140.51 188.60 142.29 C 186.00 147.96 183.34 153.60 180.64 159.22 C 176.09 160.86 171.56 162.52 167.02 164.18 C 164.29 168.50 161.62 172.86 158.90 177.19 C 153.98 178.86 149.04 180.52 144.11 182.18 C 142.75 187.29 141.44 192.42 140.10 197.54 C 138.14 198.38 136.19 199.24 134.19 200.00 L 104.58 200.00 C 104.38 196.15 104.18 192.30 104.02 188.45 C 109.59 186.48 115.14 184.46 120.70 182.48 C 121.40 176.45 122.04 170.42 122.71 164.39 C 128.97 163.01 135.23 161.70 141.49 160.34 C 143.20 153.99 144.89 147.63 146.59 141.27 C 152.47 139.55 158.39 137.96 164.27 136.25 C 165.64 130.00 166.96 123.75 168.32 117.50 C 174.22 115.85 180.10 114.15 186.01 112.52 C 187.43 107.28 188.76 102.02 190.16 96.78 Z" />
<path fill="#ffffff" d=" M 73.60 133.38 C 82.20 133.35 90.80 133.35 99.40 133.38 C 99.41 141.58 99.40 149.79 99.40 157.99 C 90.80 158.01 82.20 158.00 73.60 157.99 C 73.60 149.79 73.59 141.58 73.60 133.38 Z" />
<path fill="#ff0000" d=" M 188.60 142.29 C 192.35 140.51 196.23 139.00 200.00 137.25 L 200.00 200.00 L 134.19 200.00 C 136.19 199.24 138.14 198.38 140.10 197.54 C 141.44 192.42 142.75 187.29 144.11 182.18 C 149.04 180.52 153.98 178.86 158.90 177.19 C 161.62 172.86 164.29 168.50 167.02 164.18 C 171.56 162.52 176.09 160.86 180.64 159.22 C 183.34 153.60 186.00 147.96 188.60 142.29 Z" />
</svg>
