<?xml version="1.0" encoding="utf-8"?>
<!DOCTYPE svg PUBLIC "-//W3C//DTD SVG 1.1//EN" "http://www.w3.org/Graphics/SVG/1.1/DTD/svg11.dtd">
<svg version="1.1" id="Layer_1" xmlns="http://www.w3.org/2000/svg" xmlns:xlink="http://www.w3.org/1999/xlink" x="0px" y="0px"
	 width="12px" height="12px" viewBox="0 0 12 12" enable-background="new 0 0 12 12" xml:space="preserve">
<path fill="#E4001E" d="M6.8,1.5c-0.5-0.8-1.3-0.8-1.7,0L0.9,8.5C0.4,9.3,0.8,10,1.7,10h8.6c0.9,0,1.3-0.7,0.8-1.5L6.8,1.5z"/>
<path fill="none" stroke="#AC0017" stroke-width="0.8491" stroke-miterlimit="10" d="M6.8,1.5c-0.5-0.8-1.3-0.8-1.7,0L0.9,8.5
  C0.4,9.3,0.8,10,1.7,10h8.6c0.9,0,1.3-0.7,0.8-1.5L6.8,1.5z"/>
<path fill="#FFFFFF" d="M7,6.5C7,6.8,6.8,7,6.5,7h-1C5.2,7,5,6.8,5,6.5v-3C5,3.2,5.2,3,5.5,3h1C6.8,3,7,3.2,7,3.5V6.5z"/>
<path fill="#FFFFFF" d="M7,9c0,0.3-0.2,0.5-0.5,0.5h-1C5.2,9.5,5,9.3,5,9V8.5C5,8.2,5.2,8,5.5,8h1C6.8,8,7,8.2,7,8.5V9z"/>
</svg>
