<?xml version="1.0" encoding="utf-8"?>
<!DOCTYPE svg PUBLIC "-//W3C//DTD SVG 1.1//EN" "http://www.w3.org/Graphics/SVG/1.1/DTD/svg11.dtd">
<svg version="1.1" id="Layer_1" xmlns="http://www.w3.org/2000/svg" xmlns:xlink="http://www.w3.org/1999/xlink" x="0px" y="0px"
 width="12px" height="12px" viewBox="0 0 12 12" enable-background="new 0 0 12 12" xml:space="preserve">
<path fill-rule="evenodd" clip-rule="evenodd" fill="#8F9DAA" d="M5.6,6.4C5.5,6.3,5.4,6.2,5.4,6.2L5.2,6L3.9,4.7
  C3.1,4,2.3,3.2,1.5,2.4C1.3,2.2,1.2,1.9,1.2,1.6l0-0.1C1.6,1.7,2,1.8,2.3,2.1C3.1,3,3.9,3.8,4.8,4.6l1.1,1.1C5.9,5.8,6,5.8,6.1,5.9
  L5.6,6.4z"/>
<path fill="#80909E" d="M1.4,1.8C1.7,1.9,1.9,2,2.2,2.2C3,3.1,3.8,3.9,4.7,4.7C5,5.1,5.4,5.5,5.7,5.8c0,0,0.1,0.1,0.1,0.1L5.6,6.1
  c0,0-0.1-0.1-0.1-0.1c0,0-0.1-0.1-0.1-0.1C4.9,5.5,4.5,5,4,4.6C3.2,3.8,2.5,3.1,1.7,2.3C1.5,2.1,1.4,2,1.4,1.8 M1,1.3
  C1,1.3,0.9,1.4,1,1.5c0.1,0.4,0.1,0.7,0.5,1c1.2,1.2,2.5,2.4,3.7,3.6c0.2,0.2,0.3,0.3,0.5,0.4c0.2-0.2,0.5-0.4,0.7-0.7
  C6.2,5.8,6.1,5.7,6,5.6C4.8,4.4,3.6,3.2,2.4,2C2,1.6,1.6,1.5,1.2,1.4C1.1,1.3,1.1,1.3,1,1.3L1,1.3z"/>
<path fill-rule="evenodd" clip-rule="evenodd" fill="#CFDBE7" d="M8.6,5.3c-0.3,0-0.5-0.1-0.7-0.4C7.7,4.7,7.5,4.6,7.3,4.6
  c-0.2,0-0.4,0.1-0.6,0.3C6.6,5,6.5,5,6.5,5C6.4,5,6.4,4.9,6.3,4.8L6.2,4.7C6.2,4.7,6.1,4.7,6.1,4.7c0,0,0.1-0.1,0.1-0.1
  C6.6,4.2,6.6,4,6.5,3.7c-0.3-1.3,0-1.8,0.8-2.4C7.7,1,8.2,0.9,8.7,0.9c0.4,0,0.8,0.1,1.1,0.3L9.7,1.2C9.4,1.4,9,1.6,8.7,1.8
  C8.3,2.2,8.1,2.7,8.3,3.1C8.5,3.6,9,3.8,9.5,3.8c0.1,0,0.2,0,0.3,0c0.5-0.1,0.8-0.4,1.2-0.7C11,3,11,3,11.1,3c0,0,0,0,0,0
  c0,0,0,0,0,0.1l0,0.1c0,1.2-0.9,2.1-2.2,2.1L8.6,5.3z"/>
<path fill="#BCCCDC" d="M8.7,1C9,1,9.2,1,9.5,1.2C9.2,1.3,8.9,1.5,8.7,1.7C8.2,2.1,8,2.7,8.2,3.2C8.4,3.7,8.9,4,9.5,4
  c0.1,0,0.2,0,0.3,0c0.5-0.1,0.9-0.4,1.2-0.7c0,1.1-0.9,1.9-2.1,1.9l-0.1,0c-0.1,0-0.1,0-0.2,0c-0.3,0-0.5,0-0.6-0.3
  C7.8,4.6,7.6,4.5,7.3,4.5c-0.2,0-0.5,0.1-0.7,0.3C6.5,4.8,6.5,4.9,6.5,4.9c0,0-0.1-0.1-0.1-0.1c0,0-0.1-0.1-0.1-0.1c0,0,0,0,0,0
  l0.1,0C6.8,4.3,6.7,4,6.7,3.7C6.3,2.4,6.7,2,7.4,1.4C7.8,1.1,8.2,1,8.7,1 M8.7,0.7c-0.5,0-1,0.2-1.4,0.5C6.4,1.9,6.1,2.4,6.4,3.7
  C6.5,4,6.5,4.2,6.2,4.4C6.1,4.5,5.9,4.6,6.1,4.8C6.2,5,6.3,5.1,6.5,5.1c0.1,0,0.2,0,0.3-0.1c0.2-0.2,0.3-0.2,0.5-0.2
  c0.2,0,0.3,0.1,0.5,0.3C8,5.4,8.3,5.4,8.6,5.4c0.1,0,0.2,0,0.3,0c1.4-0.1,2.4-1,2.4-2.3c0-0.1,0.1-0.3-0.1-0.3c0,0,0,0-0.1,0
  C11,2.8,11,2.9,10.9,3c-0.4,0.3-0.7,0.6-1.2,0.7c-0.1,0-0.2,0-0.3,0c-0.4,0-0.9-0.2-1.1-0.6c-0.2-0.3,0-0.8,0.4-1.2
  C9.2,1.6,9.6,1.4,10,1.1C9.6,0.9,9.1,0.7,8.7,0.7L8.7,0.7z"/>
<path fill-rule="evenodd" clip-rule="evenodd" fill="#CFDBE7" d="M4.1,6.8C4.1,6.8,4.1,6.8,4.1,6.8C4.1,6.8,4.1,6.8,4.1,6.8L4.1,6.8
 z"/>
<path fill-rule="evenodd" clip-rule="evenodd" fill="#E85A53" d="M9.1,10.6c-0.2,0-0.3-0.1-0.5-0.3C7.9,9.5,7.2,8.6,6.5,7.8
  C6.4,7.6,6.2,7.5,5.9,7.5c0,0,0,0,0,0c-0.1,0-0.3,0-0.4-0.1C5.4,7.3,5.3,7.3,5.3,7.2c0-0.1,0-0.2,0.1-0.3L6.4,6l0.3-0.2
  c0.1-0.1,0.3-0.2,0.4-0.2c0.2,0,0.3,0.3,0.3,0.4c0,0.5,0.3,0.8,0.6,1c0.8,0.6,1.5,1.2,2.3,1.8c0.2,0.2,0.3,0.3,0.3,0.4
  c0,0.1-0.1,0.3-0.2,0.4C10,10,9.8,10.2,9.6,10.4C9.4,10.5,9.3,10.6,9.1,10.6z"/>
<path fill="#DC5149" d="M7.1,5.8c0.1,0,0.1,0.2,0.1,0.3c0,0.6,0.3,0.9,0.7,1.1C8.6,7.8,9.4,8.4,10.1,9c0.2,0.2,0.2,0.2,0.2,0.3
  c0,0,0,0.1-0.2,0.3C9.9,9.8,9.7,10,9.5,10.2c-0.1,0.1-0.3,0.2-0.4,0.2c-0.1,0-0.2-0.1-0.4-0.2C8.1,9.4,7.4,8.5,6.6,7.7
  C6.5,7.5,6.3,7.3,5.9,7.3l-0.1,0c0,0-0.1,0-0.3-0.1c-0.1,0-0.1-0.1-0.1-0.1l0,0c0,0,0-0.1,0.1-0.1C5.7,7,5.7,6.9,5.8,6.9l0.1-0.1
  l0.7-0.6l0.1-0.1C6.6,6.1,6.7,6,6.8,6C6.9,5.9,7,5.8,7.1,5.8 M7.1,5.5c-0.2,0-0.3,0.1-0.5,0.2C6.5,5.8,6.4,5.9,6.3,5.9
  C6.1,6.1,5.8,6.4,5.6,6.6C5.5,6.7,5.4,6.7,5.4,6.8C5.1,7.1,5.1,7.4,5.5,7.5c0.1,0.1,0.3,0.1,0.4,0.1c0,0,0,0,0,0c0,0,0,0,0,0
  c0.2,0,0.3,0.1,0.5,0.3c0.7,0.8,1.4,1.7,2.1,2.5c0.2,0.2,0.4,0.3,0.6,0.3c0.2,0,0.4-0.1,0.6-0.3c0.2-0.2,0.5-0.4,0.7-0.6
  c0.4-0.4,0.4-0.7,0-1.1C9.6,8.2,8.8,7.6,8.1,7C7.8,6.7,7.5,6.5,7.5,6.1C7.5,5.7,7.3,5.5,7.1,5.5L7.1,5.5z"/>
<path fill-rule="evenodd" clip-rule="evenodd" fill="#CFDBE7" stroke="#BCCCDC" stroke-width="0.25" stroke-miterlimit="10" d="
 M4.9,8C4.3,7.8,4.2,7.4,4.6,6.8c0.2-0.2,0-0.3-0.1-0.5C4.4,6.2,4.3,6.1,4.1,6.3C3.2,7.1,2.3,7.9,1.5,8.6c-0.3,0.3-0.6,1.1,0,1.7
 c0.6,0.6,1.5,0.3,2-0.2C4,9.6,4.5,9,5,8.4C5.2,8.2,5.2,8.2,4.9,8z M2.4,10.1c-0.3,0-0.6-0.3-0.6-0.6S2,8.8,2.4,8.8S3,9.1,3,9.4
 S2.7,10.1,2.4,10.1z"/>
</svg>
