<?xml version="1.0" encoding="utf-8"?>
<!DOCTYPE svg PUBLIC "-//W3C//DTD SVG 1.1//EN" "http://www.w3.org/Graphics/SVG/1.1/DTD/svg11.dtd">
<svg version="1.1" id="Layer_1" xmlns="http://www.w3.org/2000/svg" xmlns:xlink="http://www.w3.org/1999/xlink" x="0px" y="0px"
	 width="8px" height="37px" viewBox="0 0 8 37" enable-background="new 0 0 8 37" xml:space="preserve">
<path fill="#727272" d="M8,17.99c0,2.21-1.79,4-4,4s-4-1.79-4-4c0-2.21,1.81-3.97,4.02-3.97C6.23,14.02,8,15.78,8,17.99z"/>
<path fill="#727272" d="M8,31.99c0,2.21-1.79,4-4,4s-4-1.79-4-4s1.81-3.97,4.02-3.97C6.23,28.02,8,29.78,8,31.99z"/>
<path fill="#727272" d="M8,3.97c0,2.21-1.79,4-4,4s-4-1.79-4-4S1.81,0,4.02,0C6.23,0,8,1.77,8,3.97z"/>
</svg>
